# xmcd CD database file
#
# Track frame offsets:
#	150
#	27298
#	46444
#	65019
#	122111
#	133478
#	157907
#	177739
#
# Disc length: 2686 seconds
#
# Revision: 0
# Processed by: cddbd v1.5.2PL0 Copyright (c) Steve Scherf et al.
# Submitted via: CDex 1.79
#
DISCID=770a7c08
DTITLE=Kit Downes - Dreamlife of Debris
DYEAR=2019
DGENRE=Jazz
TTITLE0=Sculptor
TTITLE1=Circinus
TTITLE2=Pinwheel
TTITLE3=Bodes
TTITLE4=Sunflower
TTITLE5=M7
TTITLE6=Twin
TTITLE7=Blackeye
EXTD=YEAR: 2019
EXTT0=
EXTT1=
EXTT2=
EXTT3=
EXTT4=
EXTT5=
EXTT6=
EXTT7=
PLAYORDER=
